<?xml version="1.0" encoding="UTF-8" standalone="no"?>
<svg width="192px" height="192px" viewBox="0 0 192 192" version="1.1" xmlns="http://www.w3.org/2000/svg" xmlns:xlink="http://www.w3.org/1999/xlink" xmlns:sketch="http://www.bohemiancoding.com/sketch/ns">
    <!-- Generator: Sketch 3.3.2 (12043) - http://www.bohemiancoding.com/sketch -->
    <title>ic_launch_sms_materialsvg</title>
    <desc>Created with Sketch.</desc>
    <defs>
        <filter x="-50%" y="-50%" width="200%" height="200%" filterUnits="objectBoundingBox" id="filter-1">
            <feOffset dx="0" dy="2" in="SourceAlpha" result="shadowOffsetOuter1"></feOffset>
            <feGaussianBlur stdDeviation="6" in="shadowOffsetOuter1" result="shadowBlurOuter1"></feGaussianBlur>
            <feColorMatrix values="0 0 0 0 0   0 0 0 0 0   0 0 0 0 0  0 0 0 0.184690947 0" in="shadowBlurOuter1" type="matrix" result="shadowMatrixOuter1"></feColorMatrix>
            <feMerge>
                <feMergeNode in="shadowMatrixOuter1"></feMergeNode>
                <feMergeNode in="SourceGraphic"></feMergeNode>
            </feMerge>
        </filter>
    </defs>
    <g id="Page-1" stroke="none" stroke-width="1" fill="none" fill-rule="evenodd" sketch:type="MSPage">
        <g id="ic_launch_sms_material" sketch:type="MSArtboardGroup">
            <g id="Group" sketch:type="MSLayerGroup"></g>
            <path d="M32.0001021,16 C23.1634897,16 16,23.1655973 16,31.9953589 L16,144.004641 C16,152.838634 23.1595726,160 32.0001021,160 L159.999898,160 C168.83651,160 176,152.834403 176,144.004641 L176,31.9953589 C176,23.1613661 168.840427,16 159.999898,16 L32.0001021,16 Z M96,182 L76,160 L116,160 L96,182 Z" id="Speech-bubble" fill="#33B016" filter="url(#filter-1)" sketch:type="MSShapeGroup"></path>
            <g id="material_line-2" sketch:type="MSLayerGroup" transform="translate(36.000000, 80.000000)" fill="#FFFFFF">
                <rect id="Rectangle-8" sketch:type="MSShapeGroup" x="0" y="0" width="120.470588" height="16" rx="2"></rect>
            </g>
            <g id="material_line-3" sketch:type="MSLayerGroup" transform="translate(36.000000, 48.000000)" fill="#FFFFFF">
                <rect id="Rectangle-8" sketch:type="MSShapeGroup" x="0" y="0" width="120.470588" height="16" rx="2"></rect>
            </g>
            <g id="bottom-line" sketch:type="MSLayerGroup" transform="translate(36.000000, 112.000000)" fill="#FFFFFF">
                <rect id="Rectangle-8" sketch:type="MSShapeGroup" x="0" y="0" width="120.470588" height="16" rx="2"></rect>
            </g>
        </g>
    </g>
</svg>