<?xml version="1.0" encoding="UTF-8" standalone="no"?>
<svg width="96px" height="96px" viewBox="0 0 96 96" version="1.1" xmlns="http://www.w3.org/2000/svg" xmlns:xlink="http://www.w3.org/1999/xlink" xmlns:sketch="http://www.bohemiancoding.com/sketch/ns">
    <!-- Generator: Sketch 3.3.2 (12043) - http://www.bohemiancoding.com/sketch -->
    <title>ic_notify_sms_svg</title>
    <desc>Created with Sketch.</desc>
    <defs></defs>
    <g id="Page-1" stroke="none" stroke-width="1" fill="none" fill-rule="evenodd" sketch:type="MSPage">
        <g id="ic_notify_sms" sketch:type="MSArtboardGroup">
            <g id="Slices" sketch:type="MSLayerGroup"></g>
            <g id="Group" sketch:type="MSLayerGroup">
                <rect id="Rectangle-1" fill="#D8D8D8" sketch:type="MSShapeGroup" x="0" y="0" width="96" height="96"></rect>
                <path d="M16.0000511,8 C11.5817449,8 8,11.5827987 8,15.9976794 L8,72.0023206 C8,76.4193169 11.5797863,80 16.0000511,80 L79.9999489,80 C84.4182551,80 88,76.4172013 88,72.0023206 L88,15.9976794 C88,11.5806831 84.4202137,8 79.9999489,8 L16.0000511,8 Z M48,92 L36,80 L60,80 L48,92 Z M16,56 L16,64 L80,64 L80,56 L16,56 Z M16,40 L16,48 L80,48 L80,40 L16,40 Z M16,24 L16,32 L80,32 L80,24 L16,24 Z" id="Speech-bubble" fill="#FFFFFF" sketch:type="MSShapeGroup"></path>
                <g id="Internal" transform="translate(13.333333, 24.000000)"></g>
            </g>
        </g>
    </g>
</svg>